<?xml version="1.0" encoding="UTF-8"?>
<!DOCTYPE svg PUBLIC "-//W3C//DTD SVG 1.1//EN" "http://www.w3.org/Graphics/SVG/1.1/DTD/svg11.dtd">
<!-- Creator: CorelDRAW -->
<svg xmlns="http://www.w3.org/2000/svg" xml:space="preserve" width="13.0729in" height="15.1848in" version="1.1" style="shape-rendering:geometricPrecision; text-rendering:geometricPrecision; image-rendering:optimizeQuality; fill-rule:evenodd; clip-rule:evenodd"
viewBox="0 0 2143.26 2489.51"
 xmlns:xlink="http://www.w3.org/1999/xlink"
 xmlns:xodm="http://www.corel.com/coreldraw/odm/2003">
 <defs>
  <style type="text/css">
   <![CDATA[
    .fil0 {fill:white}
   ]]>
  </style>
 </defs>
 <g id="Layer_x0020_1">
  <metadata id="CorelCorpID_0Corel-Layer"/>
  <path class="fil0" d="M687.57 958.85c-56.97,46.14 -119.88,91.63 -156.74,150.11 -95.6,-33.01 -244.12,-204.33 -288.71,-328 -64.76,-179.61 0.53,-362.65 53.32,-516.12 -79.38,35.28 -188.08,372.69 -170.61,558.71 17.79,189.48 140.23,356.18 290.1,443.35 -17.1,53.31 -46.51,104.73 -64.44,164.14 -18.35,60.83 -29.87,122.12 -32.64,189.05 -4.4,106.6 37.08,309.22 112.16,344.61 -47.15,-118.6 -84.09,-169.09 -80.91,-336.28 2.83,-148.49 43.22,-221.57 90.03,-334.94 32.04,9.04 59.64,33.88 91.08,51.85 272.74,155.89 720.95,250.86 844.96,509.71 33.78,70.51 49.25,159.23 26.63,241.99 -163.36,597.9 -1231.08,461.24 -1308.03,-355.92 -11.9,-126.32 5.82,-274.74 47.63,-393.45 14.06,-39.91 34.58,-72.86 42.73,-113.53 -35.38,9.16 -55.18,46.7 -80.73,91.5 -18.21,31.92 -38.45,74.24 -52.7,114.9 -104.9,299.35 -40.62,552.29 133.85,777.27 85.14,109.78 278.28,207.04 424.76,244.23 474.33,120.44 1049.18,-165.53 947.07,-646.29 -17.9,-84.28 -75.91,-180.17 -117.17,-217.17 -146.23,-131.15 -206.87,-174 -406.75,-262.14 -80.48,-35.49 -157.21,-63.06 -238.98,-94.64 -79.93,-30.87 -168.23,-82.32 -231.81,-103.47 27.4,-42.62 123.71,-132.55 171.89,-151.53 268.43,221.29 1228.77,317.17 1071.71,1053.1 -27.06,126.81 -71.16,198.06 -77.21,230.96 28.04,-12.89 45.47,-59.05 63.55,-92.87 17,-31.8 38.45,-71.67 53.65,-105.06 123.55,-271.49 98.34,-525.29 -89.09,-732.73 -203.22,-224.92 -717.39,-361.49 -823.93,-464.23 404.52,-118.04 812.04,18.29 991.09,389.05 18,37.27 15.66,45.98 50.15,56.28 41.54,-186.1 -11.38,-274.55 -164.04,-377.27 -248.03,-166.89 -603.86,-228.87 -883.94,-116.54 -65.11,26.11 -84.06,2.87 -169.77,-75.71 -40.26,-36.92 -88.31,-102.82 -119.84,-164.35 -159.74,-311.74 29.49,-610.5 453.41,-544.85 207.58,32.15 372.68,218.95 435.96,391.56 33.13,90.37 36.79,203.73 58.36,221.74 24.89,-40.77 4.7,-287.18 1.51,-356.86 -4.71,-102.85 22.31,-136.62 -160.7,-215.67 -342.62,-147.98 -915.14,-138.13 -976.53,357.85 -21.55,174.1 41.92,309.42 145.42,422.83 32.52,35.63 64.4,57.55 94.26,94.85z"/>
  <path class="fil0" d="M2037.98 1209.98c442.33,915.64 -1030.64,1686.92 -1543.47,643.42 -36.88,137.35 -3.78,237.07 77.98,310.61 860.27,702.17 1909.2,-253.22 1465.49,-954.03z"/>
 </g>
</svg>
